<?xml version="1.0" standalone="no"?>
<!DOCTYPE svg PUBLIC "-//W3C//DTD SVG 20010904//EN"
 "http://www.w3.org/TR/2001/REC-SVG-20010904/DTD/svg10.dtd">
<svg version="1.0" xmlns="http://www.w3.org/2000/svg"
 width="1959.000000pt" height="2086.000000pt" viewBox="0 0 1959.000000 2086.000000"
 preserveAspectRatio="xMidYMid meet">

<g transform="translate(0.000000,2086.000000) scale(0.100000,-0.100000)"
fill="#000000" stroke="none">
<path d="M0 10430 l0 -10430 9795 0 9795 0 0 10430 0 10430 -9795 0 -9795 0 0
-10430z m10690 10255 c168 -14 226 -23 328 -49 31 -9 116 -22 187 -31 149 -18
187 -26 270 -55 33 -11 108 -29 167 -40 58 -10 139 -33 180 -49 40 -17 115
-40 165 -50 51 -11 113 -32 138 -47 25 -14 85 -35 133 -45 51 -11 106 -31 133
-48 25 -15 77 -38 115 -49 38 -12 85 -32 105 -46 20 -13 61 -32 91 -41 31 -8
76 -29 101 -45 24 -17 70 -39 101 -50 31 -10 71 -31 90 -45 19 -15 59 -35 88
-46 29 -11 69 -33 88 -48 19 -15 60 -37 91 -50 31 -12 67 -33 79 -47 13 -13
50 -37 84 -54 65 -31 138 -80 196 -128 19 -16 55 -40 80 -52 25 -13 63 -37 85
-55 22 -18 54 -40 72 -49 17 -8 40 -26 50 -39 10 -14 32 -31 48 -40 17 -8 39
-25 50 -37 11 -12 40 -36 64 -53 24 -16 51 -37 60 -46 9 -9 35 -30 56 -46 107
-79 424 -380 612 -581 102 -108 115 -123 151 -172 20 -27 64 -82 97 -121 33
-40 70 -87 82 -104 13 -18 36 -45 52 -62 16 -16 34 -41 41 -54 7 -13 32 -49
56 -78 24 -30 44 -58 44 -63 0 -5 18 -30 40 -55 22 -26 47 -63 56 -83 8 -21
28 -50 44 -67 16 -16 38 -52 50 -79 11 -27 32 -61 47 -75 14 -14 34 -46 45
-70 10 -24 31 -60 47 -80 15 -20 35 -56 45 -80 9 -24 28 -58 42 -76 13 -18 35
-60 48 -93 13 -33 35 -76 49 -94 13 -18 34 -60 46 -93 13 -33 35 -80 51 -105
15 -25 35 -69 44 -98 8 -29 29 -77 45 -105 16 -29 37 -81 46 -117 10 -36 31
-88 46 -116 16 -28 38 -89 50 -134 11 -46 32 -106 46 -133 14 -28 35 -98 48
-156 12 -58 34 -134 48 -168 15 -34 38 -124 51 -200 14 -76 36 -178 50 -228
13 -49 31 -160 41 -245 9 -85 27 -214 40 -286 59 -319 58 -1158 0 -1472 -8
-42 -21 -133 -29 -202 -26 -218 -37 -282 -61 -360 -13 -41 -33 -133 -45 -205
-12 -74 -32 -154 -46 -187 -14 -32 -36 -110 -49 -173 -14 -70 -34 -134 -49
-160 -14 -24 -35 -83 -46 -132 -12 -48 -34 -110 -49 -138 -16 -27 -36 -77 -45
-110 -10 -32 -29 -82 -43 -110 -14 -27 -36 -81 -49 -119 -13 -38 -34 -83 -47
-100 -13 -17 -32 -54 -41 -82 -9 -28 -31 -73 -48 -100 -17 -27 -42 -76 -55
-109 -14 -33 -36 -74 -49 -91 -13 -18 -31 -51 -40 -75 -10 -24 -30 -60 -44
-79 -15 -19 -40 -60 -55 -90 -15 -30 -38 -66 -51 -80 -12 -14 -30 -41 -38 -60
-8 -19 -24 -48 -36 -65 -11 -16 -20 -45 -20 -64 0 -28 10 -43 68 -98 37 -35
86 -76 109 -91 45 -29 93 -103 93 -143 0 -25 -73 -149 -88 -149 -5 0 -18 -17
-30 -38 -11 -21 -31 -47 -43 -58 -12 -10 -37 -41 -55 -69 -44 -65 -146 -196
-225 -288 -19 -23 -45 -58 -57 -77 -28 -46 -111 -126 -140 -135 -20 -6 -33 2
-77 48 -30 30 -66 75 -81 99 -40 63 -104 137 -125 143 -30 10 -57 -11 -204
-155 -77 -75 -185 -176 -240 -224 -55 -48 -122 -107 -150 -131 -107 -95 -139
-120 -279 -223 -216 -158 -224 -164 -286 -202 -32 -19 -66 -42 -76 -51 -11
-10 -73 -49 -139 -87 -66 -39 -133 -80 -150 -91 -16 -11 -60 -36 -97 -55 -37
-18 -80 -42 -95 -53 -26 -17 -139 -73 -343 -171 -47 -23 -112 -51 -145 -63
-33 -12 -78 -32 -100 -44 -22 -13 -74 -33 -115 -45 -41 -12 -101 -35 -132 -51
-32 -16 -88 -36 -125 -45 -37 -8 -98 -28 -135 -44 -37 -16 -113 -38 -168 -50
-56 -12 -130 -32 -165 -45 -36 -14 -117 -34 -182 -45 -65 -12 -170 -35 -233
-51 -87 -23 -169 -35 -339 -49 -123 -11 -231 -22 -240 -24 -9 -3 -99 -15 -200
-26 -302 -34 -750 -25 -1071 19 -80 12 -224 27 -321 36 -133 11 -211 23 -313
50 -76 19 -172 40 -214 46 -42 6 -115 23 -162 39 -47 16 -130 40 -185 53 -56
14 -130 36 -165 50 -36 14 -95 33 -133 41 -37 9 -94 29 -127 46 -32 16 -94 39
-136 51 -43 12 -94 32 -113 45 -20 13 -63 32 -96 44 -33 11 -98 38 -145 61
-166 80 -345 172 -380 194 -19 12 -45 25 -57 29 -12 4 -45 23 -73 42 -29 20
-71 44 -94 54 -24 10 -64 33 -89 52 -26 18 -82 56 -127 83 -44 28 -97 62 -118
78 -20 15 -66 47 -102 72 -136 93 -293 213 -303 232 -5 8 -41 29 -81 48 -55
26 -80 46 -109 84 -21 27 -97 105 -170 173 -154 144 -350 344 -433 442 -33 38
-81 95 -109 126 -101 115 -120 139 -255 319 -94 125 -119 161 -200 283 -36 53
-75 112 -87 130 -12 18 -35 55 -50 82 -15 26 -42 69 -59 95 -17 25 -42 69 -56
96 -14 28 -50 95 -79 150 -122 231 -181 353 -196 399 -8 27 -28 72 -43 100
-16 28 -39 83 -51 121 -12 39 -34 95 -50 125 -15 30 -35 84 -44 120 -9 36 -30
95 -46 131 -16 37 -37 104 -48 151 -11 46 -33 122 -50 168 -16 47 -35 119 -41
161 -6 41 -18 100 -26 130 -9 29 -24 86 -35 124 -10 39 -26 133 -35 210 -8 77
-29 203 -45 280 -42 197 -52 419 -45 1000 3 259 9 493 12 522 6 50 5 53 -25
71 -30 18 -34 18 -119 2 -48 -10 -111 -28 -140 -41 l-53 -23 -37 19 c-36 20
-37 21 -34 75 7 128 34 289 72 432 23 84 44 160 49 167 15 29 57 51 126 65 39
8 95 25 125 38 31 14 80 31 110 38 58 13 100 43 100 69 0 22 38 158 56 200 8
18 23 70 34 116 11 46 30 108 44 139 14 30 34 90 46 133 12 43 32 98 46 122
13 24 35 80 49 125 15 44 39 104 54 131 15 28 34 68 40 90 14 43 127 280 146
305 6 8 24 44 39 80 15 36 38 79 51 96 13 16 37 59 54 95 17 35 46 86 64 112
62 94 127 198 127 204 0 3 12 22 26 40 15 19 60 85 101 146 41 62 87 126 103
142 15 17 32 39 38 51 6 12 26 39 44 62 18 22 62 77 98 123 220 278 612 673
931 937 102 84 191 152 198 152 4 0 16 8 27 18 10 10 45 37 76 60 31 23 59 46
63 52 4 6 32 23 64 39 31 16 76 45 100 65 24 20 46 36 51 36 4 0 38 23 75 50
37 28 74 50 81 50 7 0 33 16 59 35 25 20 71 47 100 60 30 13 70 35 88 49 18
14 52 32 74 40 23 8 65 31 93 50 29 20 71 41 93 47 23 6 67 26 97 45 30 18 79
41 107 49 29 9 79 31 110 50 32 18 78 39 103 45 25 7 68 25 96 41 27 15 88 37
135 48 46 11 111 34 144 50 33 17 101 40 150 50 50 11 117 31 150 45 34 14
114 35 178 46 65 12 146 32 180 44 61 23 121 35 282 56 44 6 130 21 190 34
145 32 274 45 535 56 287 11 915 3 1120 -15z m-5497 -18777 c7 -10 27 -29 46
-40 23 -15 42 -40 61 -82 36 -79 28 -100 -47 -122 -45 -13 -56 -21 -72 -53
-23 -44 -55 -61 -116 -61 -44 0 -75 18 -75 45 0 8 -18 35 -40 60 -41 47 -48
74 -30 120 13 35 34 41 80 20 35 -16 42 -16 62 -3 17 11 22 25 23 61 1 58 23
85 66 79 17 -2 36 -13 42 -24z m2199 -116 c48 -48 59 -65 67 -107 15 -79 -11
-115 -84 -115 -25 0 -37 6 -46 23 -21 39 -59 60 -59 33 0 -8 3 -16 8 -18 4 -1
15 -17 25 -35 22 -41 9 -72 -42 -101 -52 -30 -78 -19 -151 61 -55 59 -63 73
-63 107 0 55 25 90 65 90 17 0 39 -6 47 -14 9 -8 28 -18 44 -21 25 -7 27 -5
27 22 0 16 -5 34 -11 40 -18 18 -1 67 29 86 43 27 79 14 144 -51z m-850 -18
c80 -27 82 -32 68 -189 -10 -121 -10 -139 4 -160 9 -14 26 -27 39 -30 12 -2
134 -6 270 -7 246 -3 249 -3 267 -26 11 -13 22 -43 26 -68 9 -65 -40 -639 -67
-770 -5 -29 -31 -94 -57 -145 l-48 -94 -94 -47 c-93 -47 -174 -67 -223 -54
-38 9 -101 64 -119 104 -39 83 -15 128 77 141 88 13 140 29 158 49 18 20 59
144 83 252 9 41 18 143 21 226 5 147 5 152 -18 183 l-23 31 -130 0 c-110 0
-136 -3 -161 -18 -39 -24 -90 -129 -99 -202 -11 -81 -34 -160 -60 -200 -13
-19 -28 -52 -35 -73 -7 -21 -28 -58 -47 -82 -18 -24 -44 -62 -58 -84 -53 -84
-222 -233 -318 -282 -78 -40 -106 -38 -173 12 -45 34 -55 47 -55 71 0 32 19
52 210 221 124 110 210 225 235 310 9 32 30 86 46 120 16 35 29 79 29 100 0
49 -24 95 -53 102 -12 3 -99 4 -193 3 -157 -3 -173 -1 -193 16 -32 29 -47 88
-33 133 19 64 34 68 237 69 228 1 219 0 252 28 28 24 28 25 33 171 l5 147 33
29 c38 34 91 38 164 13z m3318 -52 c30 -37 35 -102 12 -155 -11 -24 -25 -48
-32 -52 -6 -4 -208 -7 -449 -7 -468 0 -469 0 -514 50 -47 52 -25 163 35 181
20 6 215 9 481 8 l449 -2 18 -23z m4006 -28 c89 -47 104 -61 104 -95 0 -31
-80 -202 -110 -234 -10 -11 -27 -43 -38 -71 -10 -29 -31 -67 -44 -85 -35 -47
-78 -134 -78 -159 0 -39 33 -85 122 -171 74 -71 91 -93 99 -128 20 -88 -34
-171 -119 -186 -40 -6 -41 -6 -122 78 -84 88 -128 117 -177 117 -23 0 -46 -21
-136 -120 -94 -104 -170 -174 -363 -335 -22 -18 -58 -43 -79 -55 -21 -12 -53
-33 -71 -46 -29 -22 -39 -25 -81 -18 -62 9 -142 74 -143 116 0 32 73 106 146
149 25 15 57 38 72 51 15 14 37 32 50 40 29 20 198 174 227 207 11 13 40 45
65 71 47 49 77 113 66 146 -8 26 -111 107 -166 131 -59 26 -120 93 -120 132 0
45 8 58 58 94 68 48 78 50 120 23 21 -13 67 -38 102 -56 36 -18 78 -44 94 -57
24 -20 38 -23 84 -21 l56 3 35 72 c20 39 44 80 53 90 10 11 27 46 38 79 20 58
104 237 123 262 17 21 62 13 133 -24z m982 -119 c29 -13 62 -35 75 -48 12 -13
38 -34 57 -47 19 -14 61 -50 92 -81 49 -49 58 -63 58 -93 0 -49 -23 -102 -52
-116 -12 -7 -32 -20 -43 -30 -46 -40 -61 -36 -142 37 -97 87 -156 135 -215
173 -50 33 -63 56 -59 109 7 110 107 153 229 96z m-9911 -22 c49 -28 57 -37
73 -83 17 -49 -1 -132 -45 -200 -19 -29 -43 -80 -54 -113 -11 -33 -31 -74 -44
-91 -13 -17 -34 -53 -45 -79 -12 -27 -35 -65 -50 -85 -16 -20 -37 -52 -47 -71
-9 -18 -37 -58 -61 -88 -24 -29 -44 -58 -44 -63 0 -11 -319 -330 -331 -330 -5
0 -26 -15 -46 -34 -21 -18 -80 -61 -132 -95 -87 -57 -98 -61 -150 -61 -31 1
-66 6 -79 13 -34 19 -104 108 -97 124 3 8 5 19 5 24 0 5 19 18 43 30 52 27
211 131 215 142 2 4 29 25 60 46 68 47 257 241 327 336 16 22 34 45 41 50 24
22 130 213 150 273 25 73 20 110 -17 130 -19 10 -123 12 -464 11 -489 -3 -502
-1 -530 57 -22 46 -20 126 4 155 l19 24 599 5 c329 3 612 3 628 1 17 -2 49
-15 72 -28z m11050 -173 c52 -19 85 -120 63 -198 -12 -46 -45 -87 -160 -196
-41 -39 -89 -84 -105 -101 -61 -60 -202 -171 -330 -259 -28 -19 -57 -42 -65
-51 -8 -9 -39 -30 -69 -46 -31 -16 -77 -44 -103 -62 -93 -64 -164 -106 -203
-122 -22 -9 -53 -30 -70 -45 -33 -31 -69 -49 -127 -60 -41 -8 -61 6 -131 91
-40 50 -45 75 -23 118 19 36 53 58 135 86 36 12 95 41 130 64 35 22 69 41 74
41 6 0 38 17 71 39 34 21 75 47 92 57 53 32 157 105 195 138 20 17 66 56 104
86 126 103 290 253 364 334 43 48 84 84 100 87 14 4 26 7 27 8 1 0 14 -4 31
-9z m-6015 -106 c72 -69 89 -131 48 -179 -9 -11 -47 -78 -85 -150 -37 -71 -82
-150 -100 -175 -18 -25 -40 -61 -50 -80 -32 -63 -239 -289 -324 -354 -90 -68
-224 -158 -258 -172 -85 -36 -202 -3 -230 64 -14 34 -14 39 3 71 14 24 34 40
71 55 29 12 65 33 80 47 16 14 42 34 58 44 126 78 348 304 403 410 11 22 32
55 46 74 31 42 42 94 27 127 l-11 24 -424 0 c-277 0 -435 4 -453 11 -41 15
-72 48 -83 89 -14 52 0 90 40 112 32 17 68 18 530 19 272 0 513 4 535 8 58 10
140 -11 177 -45z m2140 -215 c45 -53 46 -167 3 -217 l-23 -27 -690 -1 c-379
-1 -695 -4 -701 -8 -18 -12 -78 24 -90 52 -39 102 -40 164 -3 200 l27 27 730
-2 c727 -3 730 -3 747 -24z"/>
<path d="M9770 20023 c-20 -3 -42 -13 -52 -26 -16 -21 -18 -104 -18 -1292 0
-826 4 -1283 10 -1306 15 -55 30 -63 81 -44 103 38 159 54 238 69 94 17 185
57 204 89 9 17 13 209 17 819 l5 796 25 27 c23 25 30 27 80 21 31 -3 85 -16
120 -30 38 -14 128 -33 215 -45 165 -23 192 -35 212 -92 9 -25 12 -199 13
-644 0 -469 3 -616 13 -635 10 -21 21 -26 62 -28 66 -4 151 13 220 44 31 14
106 35 168 46 61 11 141 32 177 48 37 16 110 35 170 45 58 9 125 25 150 37 79
36 106 39 129 14 12 -12 25 -46 31 -75 6 -34 10 -425 10 -1066 0 -641 -4
-1032 -10 -1066 -15 -79 -35 -94 -148 -115 -53 -9 -121 -28 -151 -41 -70 -31
-176 -53 -256 -53 -57 0 -66 3 -84 26 -21 26 -21 34 -21 731 0 629 -2 709 -16
739 -21 45 -26 47 -73 34 -22 -6 -87 -19 -146 -29 -119 -22 -186 -54 -210
-101 -13 -25 -15 -156 -15 -1017 1 -543 5 -1008 9 -1032 14 -70 27 -71 186
-21 50 16 121 34 159 40 38 6 84 17 102 25 53 22 171 53 260 69 44 7 109 26
145 40 35 14 111 35 169 47 58 11 155 36 215 54 61 19 151 43 201 54 50 11
108 27 130 36 21 9 98 30 169 45 72 15 168 40 215 55 47 14 121 33 165 41 44
9 114 29 155 45 41 17 125 39 188 49 62 11 142 31 177 45 35 14 111 35 170 46
59 11 145 34 192 50 47 17 124 37 170 45 47 8 128 31 180 49 115 42 160 44
197 10 l26 -24 -2 -1645 -3 -1646 -25 -24 c-38 -37 -192 -92 -310 -111 -58
-10 -132 -28 -165 -42 -32 -14 -116 -36 -185 -49 -138 -26 -160 -40 -152 -93
3 -20 16 -40 40 -57 19 -15 57 -46 82 -68 44 -38 110 -93 243 -204 29 -23 72
-61 97 -83 25 -22 79 -67 120 -101 41 -33 97 -79 124 -102 27 -22 72 -60 100
-83 28 -24 71 -60 96 -82 25 -21 70 -61 101 -87 147 -128 199 -161 232 -148
33 12 122 147 218 329 23 44 50 92 60 106 10 14 27 49 38 77 12 29 32 69 45
89 14 21 35 65 47 98 12 33 34 83 50 110 15 28 35 77 44 110 10 33 30 83 45
110 16 28 38 84 50 125 12 41 35 108 51 147 16 40 36 105 45 145 9 40 30 108
45 152 16 43 36 120 45 170 9 50 28 141 44 201 28 107 38 169 60 365 6 52 19
149 30 215 53 333 53 858 -1 1205 -11 74 -27 195 -34 269 -18 162 -20 176 -57
324 -16 66 -36 160 -45 210 -8 51 -25 117 -38 147 -13 30 -33 96 -45 145 -12
50 -33 115 -47 145 -13 30 -35 92 -48 137 -13 45 -37 108 -53 140 -16 32 -37
83 -47 113 -10 30 -31 80 -46 110 -15 30 -38 82 -50 115 -12 33 -31 73 -42 88
-11 16 -31 56 -46 90 -14 34 -40 82 -57 107 -17 25 -38 67 -48 93 -10 26 -28
60 -41 75 -12 15 -30 43 -40 62 -10 19 -38 64 -61 99 -24 35 -44 68 -44 73 0
10 -94 158 -131 208 -11 14 -31 43 -46 65 -56 86 -166 209 -208 234 -29 17
-34 17 -39 4 -3 -8 -6 -333 -7 -721 0 -389 -4 -731 -8 -761 -9 -62 -33 -86
-96 -97 -44 -7 -174 -47 -203 -63 -10 -5 -73 -19 -139 -31 -113 -19 -151 -30
-231 -66 -18 -8 -81 -23 -140 -34 -59 -10 -145 -31 -192 -48 -47 -17 -121 -35
-165 -41 -44 -7 -125 -27 -180 -46 -55 -19 -134 -39 -175 -45 -41 -6 -127 -29
-191 -51 -85 -28 -132 -39 -176 -39 -105 0 -96 -110 -95 1127 l0 1075 25 36
c35 53 129 97 253 118 54 9 131 29 170 44 39 16 120 37 181 49 61 11 139 32
173 46 34 14 112 35 173 46 65 12 137 32 172 48 33 16 94 34 135 40 118 19
142 29 134 54 -13 41 -44 83 -88 117 -24 19 -89 72 -143 118 -152 127 -173
144 -232 185 -31 21 -87 59 -124 85 -38 26 -90 61 -116 77 -25 17 -62 42 -81
57 -19 15 -58 36 -85 48 -28 12 -61 32 -75 45 -14 13 -47 33 -73 44 -26 11
-67 33 -90 49 -23 16 -100 57 -172 91 -71 35 -160 79 -197 97 -37 19 -91 42
-120 50 -29 9 -75 29 -103 44 -27 16 -77 36 -110 45 -33 10 -93 33 -134 51
-40 19 -111 43 -157 54 -45 10 -111 31 -145 45 -34 14 -101 32 -148 41 -47 8
-127 28 -177 45 -53 17 -149 37 -235 48 -79 11 -178 27 -219 36 -168 37 -245
46 -450 55 -208 9 -599 11 -670 3z"/>
<path d="M8839 19920 c-30 -4 -87 -16 -125 -28 -38 -11 -112 -30 -164 -42 -52
-13 -147 -40 -210 -61 -63 -21 -137 -43 -164 -49 -28 -6 -81 -25 -120 -42 -39
-17 -99 -39 -133 -49 -35 -10 -87 -31 -116 -47 -28 -17 -72 -36 -97 -42 -49
-13 -437 -203 -567 -278 -144 -82 -244 -143 -261 -158 -9 -7 -40 -28 -69 -46
-28 -18 -91 -60 -139 -93 -48 -33 -103 -71 -122 -84 -51 -34 -284 -223 -382
-310 -198 -174 -411 -389 -626 -630 -21 -24 -52 -63 -69 -87 -31 -45 -93 -125
-143 -184 -16 -19 -36 -48 -45 -65 -8 -16 -27 -41 -42 -55 -15 -14 -36 -43
-47 -65 -11 -21 -38 -62 -59 -91 -22 -28 -39 -56 -39 -62 0 -7 -15 -29 -34
-50 -19 -21 -46 -64 -61 -97 -14 -33 -37 -71 -50 -85 -13 -14 -31 -45 -41 -70
-9 -25 -28 -60 -41 -78 -13 -18 -36 -58 -49 -90 -14 -31 -38 -77 -54 -102 -15
-25 -35 -68 -45 -97 -9 -29 -28 -69 -42 -90 -15 -21 -37 -74 -50 -118 -13 -43
-34 -95 -47 -115 -13 -20 -34 -72 -45 -115 -12 -44 -36 -105 -53 -136 -25 -46
-30 -62 -24 -93 4 -20 13 -39 21 -42 8 -3 56 3 107 14 51 11 131 26 178 32 48
7 116 24 155 41 40 17 113 36 168 44 60 9 131 28 180 49 45 19 118 39 162 46
44 7 123 28 175 46 52 19 134 40 181 49 48 8 124 28 169 45 46 17 117 36 158
42 42 6 121 26 177 45 55 19 143 42 195 52 52 11 137 33 189 51 52 17 133 38
180 47 47 8 106 24 131 35 62 28 122 44 210 58 41 7 109 26 150 42 41 16 113
36 158 44 46 7 140 31 208 54 69 22 135 40 148 40 35 0 169 36 221 60 26 12
98 30 160 41 63 11 147 33 187 49 40 17 115 37 166 45 52 9 128 29 170 45 43
16 103 36 134 45 31 8 63 22 72 30 8 8 17 43 21 77 3 35 5 643 3 1352 l-3
1289 -25 17 c-33 24 -64 28 -131 20z m-588 -1560 c11 0 28 -14 39 -32 20 -31
20 -47 18 -308 -3 -324 -2 -320 -96 -345 -31 -9 -100 -31 -152 -50 -52 -18
-127 -38 -166 -44 -39 -6 -120 -27 -180 -46 -60 -19 -137 -40 -172 -45 -66
-11 -139 -33 -183 -55 -14 -8 -75 -23 -136 -34 -60 -12 -155 -37 -209 -55 -54
-19 -134 -40 -176 -46 -42 -6 -116 -25 -165 -41 -48 -17 -137 -41 -198 -54
-60 -13 -132 -33 -160 -45 -27 -12 -104 -33 -170 -47 -181 -37 -180 -37 -207
23 -19 43 -20 62 -16 314 4 330 -3 313 144 350 54 14 113 33 130 43 18 9 84
25 147 37 64 11 148 33 189 49 40 16 125 38 188 49 69 11 138 30 171 46 35 16
108 36 190 50 77 14 158 35 189 49 30 14 104 35 163 46 60 11 136 31 170 45
34 13 112 33 174 44 61 11 138 32 170 46 57 26 245 67 271 60 8 -2 22 -4 33
-4z"/>
<path d="M13680 17695 c-30 -7 -84 -18 -119 -25 -35 -6 -96 -24 -135 -40 -39
-15 -107 -35 -151 -44 -44 -9 -87 -23 -95 -32 -13 -13 -15 -74 -15 -434 0
-494 -8 -460 105 -441 40 6 99 23 132 37 33 14 109 34 170 45 128 23 197 54
227 102 20 33 21 46 21 410 l0 375 -26 31 c-28 34 -33 34 -114 16z"/>
<path d="M10070 16735 c-36 -7 -96 -25 -135 -39 -38 -13 -100 -32 -137 -42
-37 -9 -73 -23 -80 -32 -11 -12 -13 -713 -16 -3624 l-2 -3609 21 -41 22 -42
24 49 c14 28 40 66 58 85 18 19 36 45 40 58 3 12 22 42 40 67 19 24 45 66 59
93 13 26 32 54 41 62 9 8 30 39 46 69 16 31 44 77 62 103 44 64 85 129 130
207 21 36 46 75 56 86 10 11 28 38 39 61 11 22 28 47 37 54 9 8 32 44 50 80
18 36 41 72 50 80 9 8 30 41 47 74 17 34 42 74 55 90 13 16 35 50 48 76 13 25
31 52 40 60 9 8 28 36 42 64 14 28 38 66 54 86 15 19 35 52 44 72 8 21 28 52
44 70 16 18 36 50 45 72 9 21 30 54 47 73 32 37 79 134 79 164 0 10 -5 21 -12
25 -23 15 -104 4 -168 -21 -36 -14 -119 -37 -185 -51 -66 -13 -148 -35 -183
-49 -41 -17 -82 -25 -121 -25 -53 0 -61 3 -77 28 -18 26 -19 111 -22 2736 -2
2500 -3 2711 -19 2728 -19 21 -67 22 -163 3z"/>
<path d="M8855 16404 c-22 -9 -94 -26 -160 -39 -66 -13 -154 -35 -195 -50 -41
-14 -115 -34 -165 -45 -49 -10 -130 -32 -180 -49 -49 -16 -110 -33 -135 -37
-25 -4 -57 -14 -72 -23 -27 -15 -28 -17 -28 -106 1 -49 -1 -286 -3 -525 -3
-239 -2 -540 1 -668 5 -233 5 -234 29 -249 33 -22 116 -6 220 41 43 19 112 42
153 52 41 9 96 27 121 40 25 12 87 34 138 49 50 14 116 36 147 50 30 13 85 32
122 41 86 21 109 36 133 87 18 40 19 76 19 700 0 702 -1 711 -48 736 -27 14
-48 13 -97 -5z"/>
<path d="M7085 15944 c-38 -14 -122 -35 -185 -48 -63 -13 -145 -35 -181 -50
-36 -14 -108 -33 -160 -42 -52 -9 -125 -29 -164 -46 -38 -16 -121 -38 -182
-49 -62 -11 -145 -32 -185 -48 -40 -16 -115 -36 -167 -46 -51 -9 -128 -29
-171 -45 -43 -16 -120 -36 -171 -45 -52 -10 -125 -30 -164 -46 -38 -16 -120
-38 -182 -49 -61 -11 -144 -33 -185 -49 -40 -16 -107 -34 -148 -41 -101 -16
-144 -27 -216 -55 -33 -13 -109 -33 -168 -44 -120 -23 -162 -42 -188 -87 -24
-40 -67 -267 -83 -439 -17 -169 -20 -791 -5 -986 6 -73 21 -190 35 -259 13
-69 31 -190 40 -270 17 -158 22 -180 58 -285 14 -38 32 -119 41 -178 10 -71
26 -129 45 -170 16 -34 37 -100 46 -147 10 -47 30 -111 46 -142 16 -31 37 -88
48 -126 11 -39 33 -97 49 -129 16 -32 38 -83 47 -113 9 -30 29 -75 45 -100 15
-25 36 -70 45 -100 10 -30 31 -74 46 -96 16 -23 38 -66 49 -95 12 -30 33 -69
46 -87 14 -18 36 -57 50 -88 14 -31 35 -70 48 -88 13 -17 35 -54 49 -82 14
-27 33 -56 42 -64 9 -8 30 -41 47 -74 17 -34 38 -70 48 -81 20 -22 69 -89 126
-175 20 -30 52 -72 71 -93 18 -20 33 -41 33 -47 0 -5 22 -34 49 -64 27 -30 54
-63 60 -74 6 -11 31 -30 57 -42 43 -21 48 -22 77 -8 59 29 261 207 280 248 9
19 13 505 17 1985 5 1801 6 1963 22 1986 12 20 45 35 141 67 69 23 158 48 199
56 40 9 107 25 149 37 50 14 88 20 110 15 31 -5 36 -11 47 -51 9 -35 12 -447
12 -1729 0 -1035 4 -1694 9 -1710 19 -49 48 -38 182 74 179 150 312 266 385
336 l64 61 2 1144 c2 2135 -1 2958 -12 2979 -14 27 -57 25 -145 -6z"/>
<path d="M13725 14889 c-16 -5 -70 -16 -119 -25 -49 -8 -115 -26 -146 -39 -31
-13 -108 -33 -170 -45 -63 -12 -146 -35 -185 -50 -38 -16 -122 -38 -185 -48
-74 -13 -133 -30 -166 -47 -35 -18 -91 -33 -170 -46 -66 -11 -145 -31 -177
-45 -31 -14 -112 -36 -180 -49 -67 -13 -144 -33 -172 -46 -27 -12 -101 -32
-165 -45 -63 -12 -149 -36 -190 -52 -41 -17 -122 -38 -180 -47 -61 -9 -127
-27 -159 -41 -30 -15 -109 -36 -182 -49 -135 -25 -200 -52 -240 -103 -19 -25
-21 -37 -17 -147 4 -125 16 -165 47 -165 10 0 53 9 97 21 43 11 117 29 164 39
47 9 114 30 150 44 36 15 106 36 155 46 50 10 126 32 170 48 44 16 100 33 125
36 25 4 108 27 185 51 77 24 171 49 209 55 37 6 107 26 155 44 47 19 126 41
175 51 48 9 121 29 161 45 40 16 113 36 161 45 48 10 123 30 167 46 43 16 113
36 156 45 42 8 118 28 169 45 51 16 139 40 196 54 200 47 246 86 246 209 0
128 -28 181 -85 165z"/>
<path d="M8857 14299 c-26 -4 -68 -19 -95 -34 -26 -15 -94 -38 -151 -51 -57
-14 -116 -34 -132 -45 -15 -10 -76 -32 -136 -48 -59 -16 -124 -38 -143 -49
-20 -12 -76 -31 -125 -43 -111 -26 -118 -30 -140 -75 -16 -34 -17 -92 -16
-748 0 -391 1 -719 1 -728 0 -10 11 -25 25 -34 24 -16 27 -15 63 12 47 36 111
88 228 189 138 119 237 203 354 299 58 47 123 102 145 121 22 20 80 70 128
112 48 42 99 95 113 118 l24 42 0 460 c0 425 -1 462 -17 481 -22 24 -63 31
-126 21z"/>
<path d="M13730 14051 c-8 -5 -60 -16 -115 -26 -55 -9 -126 -28 -159 -42 -32
-13 -113 -35 -181 -49 -67 -13 -148 -35 -180 -49 -31 -14 -107 -34 -169 -45
-61 -10 -136 -30 -167 -45 -31 -14 -119 -38 -195 -54 -77 -16 -173 -41 -214
-54 -41 -14 -113 -33 -160 -41 -47 -9 -113 -27 -148 -41 -35 -15 -111 -35
-170 -46 -59 -12 -136 -33 -172 -49 -39 -17 -109 -35 -175 -45 -60 -10 -141
-30 -180 -45 -73 -28 -125 -42 -235 -60 -68 -12 -152 -57 -170 -91 -16 -28
-12 -234 4 -273 l14 -34 49 9 c26 5 62 13 78 18 17 5 64 15 105 21 41 7 102
23 135 36 33 13 118 37 189 54 71 17 156 42 189 56 34 13 97 31 141 40 45 9
113 28 151 41 39 14 99 32 135 40 36 9 97 24 135 35 39 11 142 39 230 62 88
24 185 53 214 65 30 12 98 31 150 42 53 10 121 28 151 38 30 11 93 29 140 41
47 12 141 39 210 60 69 21 166 47 217 59 126 30 198 63 218 100 22 44 21 208
-2 241 -27 40 -38 45 -63 31z"/>
<path d="M13679 13175 c-36 -7 -89 -25 -118 -39 -32 -17 -95 -34 -169 -46 -64
-11 -148 -33 -187 -49 -38 -16 -117 -38 -176 -49 -58 -11 -133 -31 -166 -45
-34 -14 -105 -33 -160 -42 -54 -10 -133 -31 -175 -46 -43 -16 -127 -38 -188
-50 -61 -11 -135 -32 -164 -45 -29 -13 -92 -31 -141 -39 -134 -24 -165 -32
-228 -59 -31 -14 -108 -35 -169 -46 -62 -11 -147 -33 -190 -50 -42 -16 -117
-37 -168 -45 -50 -9 -111 -25 -135 -35 -24 -10 -76 -28 -114 -40 -98 -29 -101
-35 -101 -195 0 -165 7 -179 83 -169 29 4 83 19 120 35 37 16 106 35 153 43
48 9 121 29 163 45 42 16 124 39 183 50 58 11 140 34 180 50 41 16 110 37 154
46 43 9 134 34 201 55 67 22 132 40 143 40 12 0 67 15 123 34 56 19 146 44
200 55 54 12 115 29 135 37 50 22 153 50 232 64 36 6 96 25 133 41 38 17 116
39 173 50 58 11 140 33 182 48 43 16 115 36 161 46 105 21 125 30 142 64 7 14
14 75 17 136 4 101 2 112 -18 138 -24 30 -21 30 -111 12z"/>
<path d="M8915 12630 c-22 -11 -48 -30 -58 -43 -32 -38 -100 -115 -156 -175
-29 -31 -119 -131 -200 -222 -80 -91 -326 -365 -546 -609 -220 -244 -431 -481
-469 -525 -37 -45 -105 -121 -150 -170 -44 -50 -101 -112 -126 -139 -25 -28
-66 -73 -93 -101 -26 -28 -176 -195 -333 -371 -156 -176 -304 -341 -327 -366
-141 -153 -143 -157 -133 -214 5 -25 20 -43 57 -72 28 -21 79 -59 112 -85 58
-45 148 -109 225 -161 18 -12 52 -37 75 -55 23 -17 69 -45 102 -60 33 -16 67
-37 75 -47 8 -10 41 -30 72 -45 32 -15 74 -40 93 -54 19 -15 52 -34 73 -43 20
-8 62 -30 92 -49 30 -18 74 -40 98 -48 24 -9 62 -29 85 -45 23 -16 69 -37 102
-46 33 -9 80 -29 105 -45 25 -16 72 -36 105 -45 33 -9 85 -31 115 -48 30 -16
96 -41 147 -53 50 -13 113 -34 140 -47 26 -13 84 -32 128 -41 44 -10 115 -31
159 -47 43 -16 135 -38 205 -50 69 -11 146 -26 171 -33 60 -17 105 -5 125 34
13 26 15 268 15 2069 0 1841 -2 2041 -16 2055 -19 20 -20 20 -69 -4z"/>
<path d="M13010 11950 c-19 -4 -57 -17 -85 -29 -27 -13 -111 -35 -185 -51 -74
-15 -166 -39 -205 -53 -38 -14 -112 -33 -163 -42 -52 -9 -126 -29 -165 -44
-40 -16 -117 -36 -172 -46 -55 -10 -112 -24 -126 -31 -35 -18 -122 -136 -148
-201 -11 -28 -33 -73 -50 -99 -16 -27 -37 -69 -47 -94 -10 -25 -31 -67 -47
-93 -16 -26 -38 -71 -49 -99 -11 -29 -30 -64 -43 -79 -12 -16 -35 -60 -50 -98
-15 -39 -31 -74 -37 -77 -5 -4 -28 -43 -49 -88 -21 -44 -50 -101 -64 -126 -14
-25 -35 -67 -48 -95 -26 -53 -199 -393 -274 -535 -25 -47 -54 -103 -65 -125
-10 -22 -31 -62 -45 -90 -14 -27 -66 -129 -115 -225 -49 -96 -100 -195 -114
-220 -13 -25 -34 -67 -48 -95 -13 -27 -46 -93 -73 -145 -28 -52 -59 -112 -69
-134 -10 -21 -33 -66 -51 -100 -147 -284 -177 -350 -177 -395 -1 -38 3 -47 26
-60 24 -14 43 -14 185 2 87 9 219 21 293 27 234 18 313 29 368 50 29 11 119
32 200 46 81 14 173 37 207 51 33 14 107 36 165 48 58 13 121 32 140 43 19 12
82 33 140 48 58 14 112 32 120 39 25 21 72 41 140 60 35 9 79 28 97 42 18 14
61 34 95 44 35 11 88 35 118 53 30 18 71 39 91 45 20 6 58 26 85 43 27 17 69
39 93 50 24 10 60 31 80 46 20 15 56 37 81 47 25 11 59 31 77 46 18 15 53 37
79 48 25 12 62 34 80 51 19 16 51 38 72 49 20 10 46 29 57 41 11 12 37 31 58
41 36 19 105 70 210 156 29 23 76 62 105 85 198 161 516 465 588 563 50 67 54
90 22 131 -13 15 -34 45 -48 66 -14 20 -72 98 -130 173 -58 75 -123 160 -145
189 -22 29 -67 88 -100 131 -33 43 -74 98 -92 122 -17 25 -42 57 -56 72 -13
14 -30 36 -36 48 -6 12 -28 42 -49 66 -37 45 -170 221 -229 304 -17 25 -42 57
-56 72 -13 14 -38 46 -56 71 -63 89 -117 159 -165 214 -53 60 -65 64 -146 46z"/>
<path d="M5116 1732 c-2 -4 -1 -14 4 -22 7 -11 12 -12 21 -3 6 6 8 16 5 22 -8
13 -23 14 -30 3z"/>
</g>
</svg>
